<svg xmlns="http://www.w3.org/2000/svg" version="1.1" id="Camada_1" x="0" y="0" style="enable-background:new 0 0 2500 1044.2" xml:space="preserve" viewBox="0.05 0.85 1043.39 1043.2">
	<style>
		.st0{fill:#413000}
	</style>
	<path d="M1023.7 476 568.1 20.5c-26.2-26.2-68.8-26.2-95 0l-94.6 94.6 120 120c27.9-9.4 59.9-3.1 82.1 19.1 22.3 22.4 28.6 54.6 19 82.6l115.7 115.7c28-9.6 60.3-3.4 82.6 19 31.2 31.2 31.2 81.8 0 113.1-31.2 31.2-81.8 31.2-113.1 0-23.5-23.5-29.3-58-17.4-87L559.5 389.7v283.8c7.6 3.8 14.8 8.8 21.1 15.1 31.2 31.2 31.2 81.8 0 113.1-31.2 31.2-81.9 31.2-113.1 0-31.2-31.3-31.2-81.9 0-113.1 7.7-7.7 16.6-13.5 26.2-17.4V384.7c-9.5-3.9-18.5-9.7-26.2-17.4-23.7-23.6-29.4-58.4-17.2-87.4L332 161.6 19.7 473.9c-26.2 26.3-26.2 68.8 0 95l455.6 455.5c26.2 26.2 68.8 26.2 95 0L1023.8 571c26.2-26.1 26.2-68.7-.1-95" style="fill:#f05133"/>
</svg>