<?xml version="1.0" standalone="no"?>
<!DOCTYPE svg PUBLIC "-//W3C//DTD SVG 20010904//EN"
 "http://www.w3.org/TR/2001/REC-SVG-20010904/DTD/svg10.dtd">
<svg version="1.0" xmlns="http://www.w3.org/2000/svg"
 width="700.000000pt" height="700.000000pt" viewBox="0 0 700.000000 700.000000"
 preserveAspectRatio="xMidYMid meet">
<metadata>
Created by potrace 1.14, written by Peter Selinger 2001-2017
</metadata>
<g transform="translate(0.000000,700.000000) scale(0.100000,-0.100000)"
fill="#000000" stroke="none">
<path d="M3495 6844 c-16 -2 -66 -9 -110 -15 -126 -16 -271 -55 -545 -144
-140 -46 -295 -91 -345 -101 -173 -32 -420 -3 -555 66 l-38 19 5 -42 c10 -83
45 -193 88 -274 39 -74 42 -83 24 -83 -12 0 -36 23 -65 63 l-47 62 7 -52 c4
-29 3 -53 -1 -53 -24 1 -36 26 -52 106 l-17 89 -26 -45 c-15 -25 -31 -57 -37
-72 -6 -16 -16 -28 -23 -28 -25 1 -103 41 -155 81 -29 22 -53 38 -53 35 0 -9
85 -207 119 -277 36 -73 37 -79 33 -160 -2 -46 0 -115 5 -152 9 -63 8 -70 -14
-100 -130 -173 -186 -360 -204 -673 -20 -366 18 -611 137 -872 19 -41 34 -91
34 -111 0 -33 -4 -38 -48 -58 -38 -18 -54 -33 -74 -70 -37 -69 -52 -167 -44
-281 16 -229 62 -346 226 -567 16 -22 53 -92 81 -155 29 -63 61 -127 71 -143
25 -35 68 -57 112 -57 37 0 53 -21 40 -53 -15 -40 90 -273 195 -428 119 -179
278 -351 471 -513 34 -28 35 -32 42 -120 3 -50 7 -129 8 -176 l2 -85 19 40
c17 35 19 54 13 158 l-7 119 59 -40 c191 -130 478 -222 690 -222 186 0 406 74
627 211 43 27 80 49 82 49 2 0 2 -61 2 -135 -2 -120 0 -136 17 -152 10 -10 16
-13 13 -7 -4 7 -2 85 5 174 l11 162 81 68 c99 83 263 250 338 345 119 150 204
297 257 448 33 94 37 112 22 103 -5 -4 -6 5 -2 21 6 24 14 29 55 35 68 10 95
40 155 177 28 64 66 137 84 163 17 25 51 73 75 107 102 146 147 284 159 486 9
170 -34 305 -106 335 l-28 11 23 86 c47 174 52 337 17 481 -15 62 -14 67 11
155 45 162 59 268 53 417 -6 162 -28 255 -93 390 -60 125 -134 234 -243 356
-135 153 -250 236 -366 265 l-47 12 36 36 c32 32 42 36 86 35 42 0 47 1 32 12
-21 16 -76 18 -105 3 -12 -6 16 28 63 76 l85 88 -53 -29 c-29 -16 -74 -49 -99
-74 -53 -52 -53 -52 8 103 44 110 45 114 23 97 -23 -20 -65 -95 -90 -164 l-23
-61 -2 70 c-2 39 -3 80 -3 92 0 12 -3 20 -7 17 -11 -7 -29 -100 -29 -152 l-1
-47 -21 30 c-42 60 -215 222 -288 270 -153 101 -301 164 -474 200 -77 15 -302
28 -361 19z m1047 -1481 c-44 -53 -139 -144 -192 -186 -20 -15 -28 -27 -20
-27 30 0 140 60 185 101 25 23 45 39 45 37 0 -3 -9 -27 -21 -53 -11 -25 -18
-49 -16 -52 3 -2 24 21 47 51 23 31 43 56 44 56 0 0 2 -30 3 -66 5 -131 40
-219 174 -440 81 -135 121 -224 148 -334 23 -92 34 -150 27 -150 -3 0 -35 6
-73 14 -37 8 -108 19 -158 26 -49 6 -112 18 -139 26 -63 18 -123 18 -366 -1
-222 -16 -342 -42 -466 -100 -43 -20 -92 -48 -107 -63 -28 -26 -31 -27 -158
-28 -124 -1 -130 0 -151 24 -50 53 -227 122 -376 146 -50 8 -183 20 -295 27
-184 12 -210 11 -268 -4 -35 -9 -113 -23 -174 -32 -60 -9 -128 -20 -150 -25
-22 -5 -41 -7 -44 -5 -10 10 70 438 98 525 29 91 87 212 207 437 l55 101 57
-29 c95 -49 172 -56 308 -27 48 10 54 9 125 -25 167 -81 403 -106 819 -88 382
16 592 60 785 166 44 24 82 44 83 44 2 1 -14 -20 -36 -46z m-1803 -1120 c190
-59 276 -75 388 -71 85 3 93 1 117 -21 44 -41 76 -118 76 -181 0 -169 -110
-402 -252 -536 -105 -99 -195 -129 -393 -129 -154 1 -223 14 -331 64 -86 40
-126 85 -189 213 -68 138 -89 227 -83 351 4 100 30 172 82 234 47 56 172 103
322 121 85 11 85 11 263 -45z m1838 37 c137 -24 242 -73 285 -135 99 -142 89
-359 -25 -580 -73 -141 -136 -192 -294 -237 -95 -27 -312 -32 -403 -9 -118 29
-220 104 -309 226 -48 66 -111 200 -131 281 -36 140 -23 235 41 307 l37 42 89
-3 c115 -4 181 8 378 68 88 27 169 50 180 53 23 4 77 -1 152 -13z m-2914 -297
l5 -43 -25 20 c-14 11 -34 20 -45 20 -27 0 -13 19 26 35 17 7 32 13 32 12 1
-1 4 -21 7 -44z m1907 22 c24 -12 30 -25 40 -72 49 -249 132 -408 285 -552
110 -102 227 -141 429 -141 205 0 377 53 470 146 71 71 145 218 181 359 l22
90 7 -90 c11 -138 36 -294 57 -350 l19 -50 -64 -256 c-35 -141 -77 -300 -92
-354 l-27 -97 -171 -172 c-459 -463 -848 -676 -1231 -676 -183 0 -333 40 -528
142 -232 122 -445 285 -693 534 -156 156 -173 176 -188 225 -8 30 -52 198 -97
374 l-81 320 31 210 c45 298 42 281 54 260 5 -9 19 -58 32 -109 43 -175 137
-339 229 -400 110 -73 242 -106 421 -106 205 0 322 39 437 148 127 120 228
303 262 477 9 44 18 90 21 102 11 47 114 70 175 38z m1821 -5 c24 -19 24 -19
3 -20 -12 0 -33 -9 -48 -21 -23 -18 -24 -22 -11 -35 8 -9 23 -41 32 -72 23
-72 25 -285 4 -324 -7 -15 -11 -32 -9 -40 3 -7 15 14 28 47 20 51 24 79 24
180 1 66 -3 151 -7 189 -7 53 -6 67 4 64 44 -15 60 -267 26 -427 -21 -99 -84
-230 -155 -323 -61 -79 -99 -146 -147 -260 -43 -101 -74 -138 -117 -138 -24 0
-29 3 -24 17 4 9 25 88 47 177 34 137 45 166 72 196 29 32 29 33 3 10 l-28
-25 7 35 c4 19 13 50 21 69 8 18 12 36 9 40 -2 4 2 29 10 57 12 45 13 46 14
16 1 -18 -4 -43 -10 -55 -10 -21 -10 -21 5 -3 11 13 16 41 16 83 0 76 25 139
43 108 40 -71 25 -198 -30 -252 -50 -51 -39 -51 19 -1 78 67 101 116 95 203
-2 39 -14 96 -25 127 -19 55 -20 60 -4 110 9 29 20 54 24 56 4 2 5 16 2 31 -3
16 2 44 12 67 9 21 19 47 20 57 6 27 33 77 43 77 5 0 19 -9 32 -20z m-3808
-102 c-4 -40 -8 -125 -7 -188 0 -96 4 -125 24 -175 27 -68 39 -60 16 10 -29
84 -17 252 25 358 6 15 15 27 19 27 4 0 15 -31 25 -69 12 -52 14 -74 6 -89 -6
-12 -11 -24 -11 -29 1 -4 6 2 13 15 12 21 14 19 32 -33 18 -54 18 -58 1 -111
-43 -136 -31 -221 41 -289 55 -53 55 -53 107 -107 40 -42 44 -53 84 -209 23
-90 42 -170 42 -176 0 -7 -11 -13 -24 -13 -45 0 -79 42 -135 170 -36 80 -77
153 -118 209 -80 107 -149 245 -168 336 -23 109 -29 261 -15 330 16 77 27 105
40 105 8 0 9 -22 3 -72z m240 -370 c15 -29 57 -182 57 -205 0 -4 -9 6 -20 22
-31 46 -24 22 9 -32 32 -53 49 -113 32 -113 -6 0 -24 19 -41 42 -17 23 -39 47
-50 55 -38 26 -56 170 -30 233 16 38 23 38 43 -2z"/>
<path d="M2581 4019 c-115 -18 -261 -79 -261 -109 0 -14 2 -13 57 14 56 28
181 56 250 56 l48 0 -31 -19 c-56 -34 -79 -78 -79 -151 0 -73 22 -116 79 -152
l31 -19 -50 7 c-137 18 -236 72 -271 148 -17 38 -25 46 -30 33 -3 -10 4 -38
17 -64 30 -61 102 -106 207 -129 88 -20 292 -14 402 11 36 8 47 12 25 10 -22
-2 -74 -7 -115 -10 l-75 -6 37 20 c67 37 103 131 78 206 -7 20 -27 52 -46 71
-40 39 -34 42 37 15 65 -25 144 -86 193 -151 44 -57 54 -59 32 -6 -18 43 -97
130 -148 162 -89 57 -253 83 -387 63z m259 -86 c54 -45 60 -93 13 -93 -15 0
-39 14 -59 34 -67 67 -26 120 46 59z m-180 -212 c14 -27 13 -38 -5 -45 -9 -3
-24 3 -35 14 -11 11 -17 26 -14 35 9 21 41 19 54 -4z"/>
<path d="M4195 4020 c-155 -25 -293 -130 -333 -252 l-11 -33 26 35 c80 104
185 180 273 196 l35 7 -29 -23 c-102 -82 -77 -251 44 -304 14 -6 -107 0 -195
9 -23 2 -12 -2 25 -10 36 -8 121 -18 190 -21 204 -11 324 20 400 102 33 35 40
51 39 81 l-1 38 -15 -35 c-31 -73 -107 -126 -213 -149 -113 -25 -109 -25 -64
7 97 70 97 213 0 284 l-41 31 77 -7 c84 -7 162 -28 221 -58 41 -20 58 -18 38
5 -16 20 -115 63 -185 81 -72 19 -215 27 -281 16z m165 -76 c33 -20 64 -69 56
-90 -13 -35 -84 -6 -111 46 -27 53 1 76 55 44z m-170 -219 c14 -16 10 -47 -6
-52 -16 -5 -44 25 -44 48 0 23 32 26 50 4z"/>
<path d="M3298 3102 c-36 -89 -47 -142 -39 -189 15 -80 55 -114 160 -133 63
-11 93 -8 49 6 -44 14 -95 55 -119 97 -22 38 -24 53 -24 165 0 67 0 122 0 122
0 0 -12 -30 -27 -68z"/>
<path d="M3608 2844 c-16 -8 -28 -16 -28 -17 0 -2 17 -3 38 -3 20 -1 47 -4 60
-9 16 -5 22 -3 22 7 0 37 -45 48 -92 22z"/>
<path d="M3192 2649 l-233 -18 -65 -36 c-60 -34 -84 -58 -71 -71 7 -7 560 14
580 22 9 3 32 30 53 60 21 30 40 54 43 54 3 0 23 -25 45 -55 21 -29 45 -56 53
-60 21 -7 573 -28 580 -21 13 13 -10 36 -71 70 l-66 37 -258 19 c-297 23 -285
23 -590 -1z"/>
<path d="M2970 2427 c9 -7 47 -37 85 -68 150 -120 195 -134 420 -134 197 1
265 14 390 75 44 22 109 62 144 90 73 57 74 56 -69 40 -333 -37 -510 -39 -769
-11 -219 25 -222 25 -201 8z m324 -33 c182 -16 263 -14 661 22 l60 5 -35 -31
c-175 -155 -583 -210 -790 -105 -38 19 -180 124 -180 132 0 3 24 3 53 0 28 -4
132 -14 231 -23z"/>
<path d="M3550 2138 c-25 -5 -69 -7 -98 -5 -39 3 -49 1 -36 -6 16 -9 172 -2
183 8 10 10 -6 11 -49 3z"/>
<path d="M5290 3775 c0 -5 5 -17 10 -25 5 -8 10 -10 10 -5 0 6 -5 17 -10 25
-5 8 -10 11 -10 5z"/>
<path d="M5312 3725 c0 -5 6 -26 13 -45 7 -19 14 -28 14 -20 0 8 -6 29 -14 45
-7 17 -13 26 -13 20z"/>
<path d="M5341 3624 c0 -11 3 -14 6 -6 3 7 2 16 -1 19 -3 4 -6 -2 -5 -13z"/>
<path d="M5352 3575 c0 -16 2 -22 5 -12 2 9 2 23 0 30 -3 6 -5 -1 -5 -18z"/>
<path d="M5348 3435 c-4 -16 -9 -39 -12 -50 -4 -11 1 -5 9 14 9 18 14 41 13
50 -2 9 -7 3 -10 -14z"/>
<path d="M5292 3297 c-18 -34 -25 -53 -16 -42 19 24 57 96 52 100 -2 2 -18
-24 -36 -58z"/>
<path d="M5215 3178 c-46 -60 -58 -78 -52 -78 5 0 76 93 91 118 17 28 -2 9
-39 -40z"/>
<path d="M1641 3624 c0 -11 3 -14 6 -6 3 7 2 16 -1 19 -3 4 -6 -2 -5 -13z"/>
<path d="M1632 3570 c0 -14 2 -19 5 -12 2 6 2 18 0 25 -3 6 -5 1 -5 -13z"/>
<path d="M1631 3444 c0 -11 3 -14 6 -6 3 7 2 16 -1 19 -3 4 -6 -2 -5 -13z"/>
<path d="M1641 3410 c0 -8 4 -22 9 -30 12 -18 12 -2 0 25 -6 13 -9 15 -9 5z"/>
<path d="M1660 3356 c0 -11 30 -66 36 -66 2 0 -3 15 -12 33 -19 36 -24 44 -24
33z"/>
<path d="M1706 3268 c17 -30 85 -125 105 -148 24 -28 17 -17 -55 89 -27 39
-51 71 -53 71 -2 0 -1 -6 3 -12z"/>
<path d="M1833 3425 c0 -27 2 -38 4 -22 2 15 2 37 0 50 -2 12 -4 0 -4 -28z"/>
</g>
</svg>
